<?xml version="1.0" encoding="UTF-8"?> <svg xmlns="http://www.w3.org/2000/svg" width="87" height="25" viewBox="0 0 87 25" fill="none"> <path d="M77.4193 0H60.8065C61.7742 5.48387 67.0968 10.6452 72.9032 10.6452H86.1291C86.2903 10.1613 86.2903 9.35484 86.2903 8.87097C86.2903 4.03226 82.258 0 77.4193 0Z" fill="url(#paint0_linear_2614_2)"></path> <path d="M62.2581 11.6129V25H70.3226V17.9032H77.4194C81.2903 17.9032 84.6775 15.1613 85.8065 11.6129H62.2581Z" fill="#4FAD50"></path> <path d="M33.871 0V24.8387H40.9678C40.9678 24.8387 42.7419 24.8387 43.7097 23.0645C48.5484 13.5484 50 10.6452 50 10.6452H50.9678V24.8387H59.0323V0H51.9355C51.9355 0 50.1613 0.1613 49.1936 1.7742C45.1613 10 42.9032 14.1936 42.9032 14.1936H41.9355V0H33.871Z" fill="#4FAD50"></path> <path d="M0 25V0.161285H8.06452C8.06452 0.161285 10.3226 0.16128 11.6129 3.70967C14.8387 13.0645 15.1613 14.3548 15.1613 14.3548C15.1613 14.3548 15.8065 12.0968 18.7097 3.70967C20 0.16128 22.2581 0.161285 22.2581 0.161285H30.3226V25H22.2581V11.6129H21.2903L16.7742 25H13.2258L8.70972 11.6129H7.74197V25H0Z" fill="#4FAD50"></path> <defs> <linearGradient id="paint0_linear_2614_2" x1="60.7777" y1="5.39888" x2="86.2332" y2="5.39888" gradientUnits="userSpaceOnUse"> <stop stop-color="#27B1E6"></stop> <stop offset="1" stop-color="#148ACA"></stop> </linearGradient> </defs> </svg> 