<?xml version="1.0" encoding="UTF-8"?> <svg xmlns="http://www.w3.org/2000/svg" width="82" height="25" viewBox="0 0 82 25" fill="none"> <path d="M75.9524 0.357117H70.8333C69.2857 0.357117 68.0952 0.833307 67.381 2.38093L57.619 24.6428H64.5238C64.5238 24.6428 65.7143 21.6666 65.9524 20.9524C66.6667 20.9524 73.4524 20.9524 74.4048 20.9524C74.6429 21.7857 75.2381 24.5238 75.2381 24.5238H81.4286L75.9524 0.357117ZM67.8571 15.9524C68.4524 14.5238 70.4762 9.16664 70.4762 9.16664C70.4762 9.28569 71.0714 7.73807 71.3095 6.90474L71.7857 9.04759C71.7857 9.04759 73.0952 14.8809 73.3333 16.0714H67.8571V15.9524Z" fill="#3362AB"></path> <path d="M58.0952 16.6667C58.0952 21.6667 53.5714 25 46.5476 25C43.5714 25 40.7143 24.4048 39.1667 23.6905L40.119 18.2143L40.9524 18.5714C43.0952 19.5238 44.5238 19.881 47.1428 19.881C49.0476 19.881 51.0714 19.1667 51.0714 17.5C51.0714 16.4286 50.2381 15.7143 47.619 14.5238C45.119 13.3333 41.7857 11.4286 41.7857 7.97619C41.7857 3.21429 46.4286 0 52.9762 0C55.4762 0 57.619 0.47619 58.9286 1.07143L57.9762 6.30952L57.5 5.83333C56.3095 5.35714 54.7619 4.88095 52.5 4.88095C50 5 48.8095 6.07143 48.8095 7.02381C48.8095 8.09524 50.2381 8.92857 52.5 10C56.3095 11.7857 58.0952 13.8095 58.0952 16.6667Z" fill="#3362AB"></path> <path d="M0 0.59524L0.119048 0.119049H10.3571C11.7857 0.119049 12.8571 0.59524 13.2143 2.14286L15.4762 12.8571C13.2143 7.14286 7.97619 2.5 0 0.59524Z" fill="#F9B50B"></path> <path d="M29.8809 0.357146L19.5238 24.5238H12.5L6.54761 4.28572C10.8333 7.02381 14.4047 11.3095 15.7143 14.2857L16.4286 16.7857L22.8571 0.238098H29.8809V0.357146Z" fill="#3362AB"></path> <path d="M32.619 0.238098H39.1666L35 24.5238H28.4524L32.619 0.238098Z" fill="#3362AB"></path> </svg> 